<?xml version="1.0" standalone="no"?>
<!DOCTYPE svg PUBLIC "-//W3C//DTD SVG 20010904//EN"
 "http://www.w3.org/TR/2001/REC-SVG-20010904/DTD/svg10.dtd">
<svg version="1.0" xmlns="http://www.w3.org/2000/svg"
 width="300.000000pt" height="300.000000pt" viewBox="0 0 300.000000 300.000000"
 preserveAspectRatio="xMidYMid meet">
<metadata>
Created by potrace 1.10, written by Peter Selinger 2001-2011
</metadata>
<g transform="translate(0.000000,300.000000) scale(0.100000,-0.100000)"
fill="#000000" stroke="none">
<path d="M710 2123 c0 -8 29 -60 288 -508 299 -517 393 -679 406 -694 18 -23
88 -51 130 -51 60 0 118 39 159 107 35 57 193 331 499 863 171 298 170 294 86
288 l-43 -3 -83 -145 c-271 -468 -418 -719 -438 -747 -34 -46 -122 -86 -189
-86 -76 0 -148 42 -196 114 -35 52 -299 503 -361 619 -17 30 -38 66 -48 80
-10 14 -27 45 -40 70 -38 77 -66 100 -122 100 -26 0 -48 -3 -48 -7z m93 -21
c20 -8 88 -116 90 -143 1 -10 4 -16 8 -13 4 2 16 -15 28 -39 12 -23 31 -58 42
-77 17 -29 103 -177 139 -240 5 -8 33 -55 62 -105 29 -49 56 -96 61 -105 4 -8
16 -28 27 -45 11 -16 23 -37 27 -45 26 -54 97 -130 122 -130 6 0 11 -4 11 -8
0 -5 6 -9 13 -10 6 0 28 -5 47 -10 49 -12 97 -7 151 16 71 31 111 77 198 232
23 41 50 89 60 105 10 17 38 63 61 104 23 41 55 92 71 114 16 22 29 46 29 54
0 7 5 13 12 13 6 0 9 3 6 6 -7 6 4 29 43 89 15 22 40 65 56 95 82 149 74 140
110 140 l34 0 -38 -72 c-20 -40 -40 -75 -43 -78 -4 -3 -29 -45 -56 -95 -55
-101 -47 -88 -131 -231 -35 -58 -63 -110 -63 -115 0 -5 -3 -9 -8 -9 -4 0 -18
-21 -31 -47 -14 -27 -44 -80 -67 -118 -23 -39 -54 -94 -70 -123 -16 -30 -39
-70 -51 -90 -12 -20 -35 -62 -51 -92 -39 -73 -96 -128 -139 -136 -49 -9 -113
13 -146 49 -28 31 -90 136 -115 192 -7 16 -17 32 -21 35 -5 3 -23 33 -42 66
-50 91 -159 278 -213 365 -25 42 -46 84 -46 93 0 9 -4 16 -9 16 -5 0 -16 12
-24 28 -8 15 -30 56 -51 90 -20 35 -33 69 -29 75 3 5 2 7 -4 4 -12 -7 -66 87
-56 97 3 3 1 6 -5 6 -12 0 -44 54 -49 83 -3 18 17 22 50 9z"/>
<path d="M933 2115 c6 -15 273 -481 403 -705 70 -120 84 -138 124 -158 55 -29
117 -24 165 12 21 17 103 150 263 430 128 223 232 410 232 416 0 5 -12 10 -27
10 -16 1 -44 3 -64 6 -50 7 -114 -12 -148 -44 -22 -21 -265 -432 -336 -569
-14 -27 -4 -42 -259 403 -48 83 -95 159 -106 169 -32 29 -91 44 -174 45 -64 0
-77 -3 -73 -15z m192 -19 c35 -15 83 -72 110 -131 10 -22 32 -59 48 -83 16
-24 26 -50 23 -58 -3 -8 -2 -13 3 -9 5 3 33 -36 62 -87 75 -134 138 -235 154
-248 11 -9 19 -4 38 27 44 71 97 161 97 166 0 3 18 35 40 71 22 36 40 69 40
73 0 3 6 14 14 22 8 9 29 43 46 76 46 90 90 151 121 169 18 11 51 16 99 16
l71 0 -35 -65 c-20 -36 -52 -95 -72 -132 -20 -38 -52 -91 -70 -120 -19 -28
-34 -55 -34 -59 0 -9 -69 -125 -79 -134 -3 -3 -16 -25 -28 -50 -23 -46 -54
-101 -63 -110 -3 -3 -18 -30 -34 -60 -38 -74 -71 -102 -126 -111 -76 -11 -109
9 -161 98 -24 43 -59 102 -77 133 -18 30 -35 63 -39 73 -3 9 -9 17 -14 17 -5
0 -9 4 -9 9 0 5 -27 56 -60 113 -33 56 -60 106 -60 111 0 4 -8 16 -17 27 -10
10 -29 41 -43 67 -13 26 -39 73 -56 103 -55 95 -54 97 17 98 34 1 76 -5 94
-12z"/>
</g>
</svg>
