<?xml version="1.0" standalone="no"?>
<!DOCTYPE svg PUBLIC "-//W3C//DTD SVG 20010904//EN"
 "http://www.w3.org/TR/2001/REC-SVG-20010904/DTD/svg10.dtd">
<svg version="1.0" xmlns="http://www.w3.org/2000/svg"
 width="300.000000pt" height="300.000000pt" viewBox="0 0 300.000000 300.000000"
 preserveAspectRatio="xMidYMid meet">
<metadata>
Created by potrace 1.10, written by Peter Selinger 2001-2011
</metadata>
<g transform="translate(0.000000,300.000000) scale(0.100000,-0.100000)"
fill="#000000" stroke="none">
<path d="M1350 2175 c-205 -41 -363 -163 -456 -350 -66 -135 -79 -194 -78
-365 0 -130 3 -153 27 -225 50 -148 123 -247 243 -325 112 -73 212 -102 374
-108 114 -3 149 -1 224 17 174 42 331 152 400 282 36 68 33 64 51 49 23 -19
29 -6 19 42 -7 30 -6 58 3 93 48 184 12 417 -89 590 -138 234 -432 357 -718
300z m264 -25 c85 -14 186 -53 240 -95 23 -17 49 -36 57 -41 9 -5 42 -38 74
-74 61 -69 106 -149 135 -240 18 -54 35 -137 24 -113 -3 7 -11 10 -18 7 -9 -3
-16 7 -20 28 -4 18 -27 75 -52 126 -76 157 -207 264 -375 309 -79 21 -261 23
-339 3 -85 -20 -170 -62 -235 -116 -67 -53 -70 -57 -121 -133 -58 -86 -103
-228 -99 -313 3 -49 38 -159 65 -203 69 -112 207 -173 405 -180 l110 -4 -94 9
c-264 26 -396 103 -436 255 -20 79 -19 146 4 237 50 196 174 330 363 393 68
22 102 27 188 28 124 1 188 -13 290 -61 85 -40 168 -117 214 -197 16 -27 41
-64 57 -82 15 -17 32 -49 39 -70 7 -21 21 -46 31 -56 23 -22 24 -29 3 -25 -10
2 -19 -3 -21 -10 -3 -7 1 -10 11 -6 9 3 16 1 16 -5 0 -6 -6 -11 -13 -11 -12 0
-47 -97 -47 -130 0 -31 -48 -116 -82 -146 -19 -17 -56 -41 -81 -53 -61 -30
-215 -61 -301 -61 -38 0 -66 -3 -63 -7 11 -11 158 -3 237 13 170 35 286 124
305 236 9 53 25 38 25 -25 1 -53 11 -118 25 -149 6 -16 5 -16 -24 -2 -19 9
-31 23 -31 35 0 10 -4 19 -10 19 -15 0 -12 -33 6 -58 8 -12 11 -22 6 -22 -5 0
-17 -18 -27 -40 -17 -37 -102 -130 -150 -164 -38 -26 -114 -66 -127 -66 -7 0
-24 -6 -38 -13 -61 -32 -220 -49 -334 -37 -290 33 -470 187 -551 470 -23 79
-26 231 -6 310 18 74 70 210 81 210 4 0 11 12 15 27 3 14 46 65 94 113 120
119 229 171 391 189 69 8 78 8 184 -9z m528 -719 c3 -38 2 -86 -1 -107 l-7
-39 -8 50 c-11 66 -16 148 -10 157 13 21 22 2 26 -61z"/>
<path d="M1205 1810 c135 -28 205 -113 205 -250 0 -45 -4 -69 -10 -65 -5 3
-10 -1 -10 -10 0 -51 -74 -146 -135 -175 -33 -15 -125 -22 -125 -10 0 5 -14
11 -30 15 -36 8 -97 77 -122 138 -16 40 -17 41 -17 12 -1 -68 66 -158 141
-189 50 -21 124 -20 173 3 53 24 119 100 139 158 21 60 20 157 -1 218 -32 94
-134 168 -225 164 -13 -1 -6 -5 17 -9z"/>
<path d="M1738 1790 c-77 -41 -121 -129 -121 -240 -1 -122 52 -218 145 -264
91 -46 178 -28 251 52 45 51 49 74 6 38 -38 -32 -67 -40 -125 -33 -44 5 -114
47 -114 69 0 6 7 5 17 -3 14 -12 14 -10 -1 14 -21 31 -28 35 -20 10 4 -14 1
-13 -14 5 -11 12 -23 40 -27 62 -4 25 -11 38 -17 33 -17 -10 -1 81 21 126 11
21 34 50 51 65 17 14 27 26 22 26 -14 0 -80 -68 -96 -98 -48 -95 -14 -227 77
-296 19 -15 57 -32 86 -39 48 -11 66 -23 39 -25 -7 0 -26 -2 -43 -5 -99 -14
-202 92 -236 242 -21 95 29 205 116 253 28 15 43 27 35 27 -8 0 -32 -9 -52
-19z"/>
<path d="M1832 1729 c-44 -22 -85 -65 -79 -83 2 -6 -2 -15 -8 -21 -9 -7 -10
-27 -5 -65 6 -49 7 -50 9 -16 3 97 74 171 140 148 35 -12 38 -7 15 26 -14 21
-14 22 11 22 76 0 147 -77 164 -181 l9 -54 1 46 c2 66 -39 142 -93 174 -53 31
-107 32 -164 4z"/>
<path d="M1105 1723 c-55 -28 -91 -79 -101 -141 -5 -31 0 -51 27 -105 39 -80
66 -101 136 -101 49 -1 56 2 95 41 41 41 42 46 46 113 6 96 -14 146 -70 183
-47 30 -89 34 -133 10z m122 -43 c43 -26 64 -71 64 -136 0 -163 -170 -219
-233 -77 -35 80 -3 178 72 215 44 23 58 22 97 -2z"/>
<path d="M1161 1621 c-28 -28 -36 -81 -17 -124 27 -66 96 -59 117 12 14 46 6
84 -21 111 -25 25 -55 25 -79 1z m29 -26 c0 -18 -5 -25 -20 -25 -22 0 -26 20
-8 38 19 19 28 14 28 -13z m47 -69 c-20 -29 -47 -33 -47 -7 0 22 27 42 47 34
12 -5 11 -9 0 -27z"/>
<path d="M1950 1651 c0 -16 23 -25 52 -22 17 1 28 -2 28 -9 0 -7 -6 -10 -13
-7 -26 10 -35 -7 -30 -56 5 -39 9 -47 27 -48 20 -1 20 -2 1 -6 -35 -9 -41 -23
-9 -24 l29 -1 -30 -8 -30 -8 28 -1 c35 -1 38 -31 2 -31 -14 0 -25 5 -25 12 0
6 -10 -1 -22 -15 -29 -32 -71 -49 -106 -41 -21 4 -24 3 -12 -5 26 -18 74 -12
112 14 38 25 58 31 58 17 0 -4 -6 -14 -12 -21 -11 -10 -10 -11 4 -6 21 8 44
57 53 115 7 40 6 43 -9 31 -15 -13 -21 -8 -16 14 13 52 10 84 -7 93 -30 15
-73 23 -73 13z"/>
<path d="M1800 1620 c-30 -30 -28 -110 3 -146 19 -22 29 -26 51 -20 15 4 24
10 21 15 -2 5 2 11 10 14 19 8 29 66 16 97 -7 19 -10 20 -10 7 -1 -26 -36 -17
-36 8 0 14 6 19 20 17 20 -3 20 -2 1 13 -27 20 -52 19 -76 -5z m48 -72 c7 -7
12 -22 12 -35 0 -34 -45 -32 -54 2 -10 41 14 61 42 33z"/>
</g>
</svg>
